<svg width="31" height="30" viewBox="0 0 31 30" fill="none" xmlns="http://www.w3.org/2000/svg">
<path fill-rule="evenodd" clip-rule="evenodd" d="M9.51782 0H20.7678C25.9447 0 30.1428 4.19812 30.1428 9.375V20.625C30.1428 25.8019 25.9447 30 20.7678 30H9.51782C4.34095 30 0.142822 25.8019 0.142822 20.625V9.375C0.142822 4.19812 4.34095 0 9.51782 0ZM20.7678 27.1875C24.3866 27.1875 27.3303 24.2437 27.3303 20.625V9.375C27.3303 5.75625 24.3866 2.8125 20.7678 2.8125H9.51782C5.89907 2.8125 2.95532 5.75625 2.95532 9.375V20.625C2.95532 24.2437 5.89907 27.1875 9.51782 27.1875H20.7678Z" fill="#969696"/>
<path fill-rule="evenodd" clip-rule="evenodd" d="M7.64273 15C7.64273 10.8581 11.0009 7.5 15.1427 7.5C19.2846 7.5 22.6427 10.8581 22.6427 15C22.6427 19.1419 19.2846 22.5 15.1427 22.5C11.0009 22.5 7.64273 19.1419 7.64273 15ZM10.4553 15C10.4553 17.5838 12.559 19.6875 15.1428 19.6875C17.7265 19.6875 19.8303 17.5838 19.8303 15C19.8303 12.4144 17.7265 10.3125 15.1428 10.3125C12.559 10.3125 10.4553 12.4144 10.4553 15Z" fill="#969696"/>
<path d="M23.2051 7.93649C23.7569 7.93649 24.2042 7.48906 24.2042 6.93712C24.2042 6.38518 23.7569 5.93774 23.2051 5.93774C22.6533 5.93774 22.206 6.38518 22.206 6.93712C22.206 7.48906 22.6533 7.93649 23.2051 7.93649Z" fill="#969696"/>
</svg>
