<svg width="28" height="30" viewBox="0 0 28 30" fill="none" xmlns="http://www.w3.org/2000/svg">
<path d="M25.5234 7.03704C23.9712 6.70813 22.5669 5.91386 21.5123 4.76822C20.4576 3.62257 19.8067 2.18444 19.6529 0.660191V0H14.2807V20.5109C14.2818 21.421 13.9856 22.3084 13.4342 23.0473C12.8829 23.7863 12.1042 24.3393 11.2085 24.6281C10.3128 24.9169 9.34546 24.9268 8.44359 24.6564C7.54171 24.3861 6.75097 23.8491 6.18339 23.1217C5.6749 22.4778 5.36353 21.7096 5.28449 20.904C5.20545 20.0985 5.3619 19.2877 5.73614 18.5634C6.11039 17.839 6.6875 17.23 7.40221 16.8052C8.11692 16.3805 8.94072 16.1568 9.78045 16.1597C10.2449 16.1571 10.707 16.2229 11.1508 16.3547V11.1032C10.6343 11.0416 10.1138 11.0165 9.59359 11.0282C7.6772 11.0775 5.81733 11.6643 4.24174 12.7166C2.66614 13.7689 1.44321 15.2411 0.722685 16.9529C0.00216248 18.6647 -0.184673 20.5418 0.185059 22.3543C0.55479 24.1669 1.46504 25.8362 2.80434 27.1579C4.17696 28.5026 5.93346 29.4237 7.85064 29.8043C9.76783 30.1849 11.7592 30.0078 13.5716 29.2954C15.3841 28.583 16.9358 27.3675 18.0297 25.8033C19.1236 24.2392 19.7103 22.3971 19.7152 20.5109V10.0079C21.8819 11.4992 24.4801 12.297 27.1429 12.2886V7.18708C26.6198 7.18916 26.098 7.13887 25.5857 7.03704H25.5234Z" fill="#969696"/>
</svg>
