<svg width="19" height="21" viewBox="0 0 19 21" fill="none" xmlns="http://www.w3.org/2000/svg">
<path d="M17.8664 4.92592C16.7798 4.69569 15.7969 4.1397 15.0586 3.33775C14.3203 2.5358 13.8647 1.52911 13.757 0.462134V0H9.99646V14.3577C9.99723 14.9947 9.78994 15.6159 9.40397 16.1331C9.01801 16.6504 8.47292 17.0375 7.84593 17.2397C7.21894 17.4418 6.54183 17.4488 5.91051 17.2595C5.2792 17.0703 4.72568 16.6944 4.32838 16.1852C3.97243 15.7344 3.75447 15.1967 3.69914 14.6328C3.64381 14.0689 3.75333 13.5014 4.0153 12.9944C4.27727 12.4873 4.68125 12.061 5.18155 11.7637C5.68184 11.4663 6.2585 11.3098 6.84631 11.3118C7.1714 11.31 7.49487 11.356 7.80553 11.4483V7.77225C7.44401 7.72911 7.0797 7.71156 6.71551 7.71973C5.37404 7.75427 4.07213 8.16499 2.96922 8.90161C1.8663 9.63822 1.01025 10.6688 0.50588 11.867C0.00151374 13.0653 -0.129271 14.3792 0.129541 15.648C0.388353 16.9168 1.02553 18.0853 1.96304 19.0105C2.92387 19.9518 4.15342 20.5966 5.49545 20.863C6.83748 21.1294 8.23141 21.0054 9.50013 20.5068C10.7689 20.0081 11.8551 19.1572 12.6208 18.0623C13.3865 16.9675 13.7972 15.6779 13.8006 14.3577V7.00553C15.3173 8.04947 17.1361 8.60792 19 8.60199V5.03096C18.6339 5.03241 18.2686 4.99721 17.91 4.92592H17.8664Z" fill="#141B2D"/>
</svg>
