<svg width="21" height="21" viewBox="0 0 21 21" fill="none" xmlns="http://www.w3.org/2000/svg">
<path fill-rule="evenodd" clip-rule="evenodd" d="M6.5625 0H14.4375C18.0613 0 21 2.93869 21 6.5625V14.4375C21 18.0613 18.0613 21 14.4375 21H6.5625C2.93869 21 0 18.0613 0 14.4375V6.5625C0 2.93869 2.93869 0 6.5625 0ZM14.4375 19.0312C16.9706 19.0312 19.0313 16.9706 19.0313 14.4375V6.5625C19.0313 4.02938 16.9706 1.96875 14.4375 1.96875H6.56252C4.02939 1.96875 1.96877 4.02938 1.96877 6.5625V14.4375C1.96877 16.9706 4.02939 19.0312 6.56252 19.0312H14.4375Z" fill="#141B2D"/>
<path fill-rule="evenodd" clip-rule="evenodd" d="M5.24994 10.5C5.24994 7.60069 7.60063 5.25 10.4999 5.25C13.3993 5.25 15.7499 7.60069 15.7499 10.5C15.7499 13.3993 13.3993 15.75 10.4999 15.75C7.60063 15.75 5.24994 13.3993 5.24994 10.5ZM7.21877 10.5C7.21877 12.3086 8.69139 13.7812 10.5 13.7812C12.3086 13.7812 13.7813 12.3086 13.7813 10.5C13.7813 8.69006 12.3086 7.21875 10.5 7.21875C8.69139 7.21875 7.21877 8.69006 7.21877 10.5Z" fill="#141B2D"/>
<path d="M16.1436 5.55562C16.5298 5.55562 16.843 5.24241 16.843 4.85606C16.843 4.4697 16.5298 4.15649 16.1436 4.15649C15.7573 4.15649 15.4442 4.4697 15.4442 4.85606C15.4442 5.24241 15.7573 5.55562 16.1436 5.55562Z" fill="#141B2D"/>
</svg>
